<svg width="495" height="92" viewBox="0 0 495 92" fill="none" xmlns="http://www.w3.org/2000/svg">
<path d="M188.614 90.5012V51.6577C188.614 41.6659 183.506 38.6683 175.782 38.6683C168.806 38.6683 162.452 42.9148 159.213 47.4112V90.5012H148V15H159.213V38.6683C163.199 33.7972 171.297 28.6764 180.516 28.6764C193.349 28.6764 199.827 35.1711 199.827 47.9108V90.5012H188.614ZM206.243 60.2758C206.243 42.7899 218.826 28.6764 236.392 28.6764C254.457 28.6764 265.67 42.7899 265.67 61.2749V64.0227H218.078C218.951 74.2644 226.426 82.7575 238.51 82.7575C244.864 82.7575 251.841 80.2595 256.326 75.6383L261.558 83.0073C255.578 88.8775 247.107 92 237.389 92C219.449 92 206.243 79.2603 206.243 60.2758ZM236.392 37.9189C224.308 37.9189 218.577 47.661 217.954 55.9043H254.706C254.457 47.9108 249.1 37.9189 236.392 37.9189ZM310.457 90.5012L293.639 67.0203L276.695 90.5012H263.988L286.537 59.5264L265.358 30.1752H278.066L293.639 51.9075L309.087 30.1752H321.795L300.491 59.5264L323.165 90.5012H310.457ZM362.471 90.5012V83.8816C357.737 89.1273 350.885 92 342.787 92C332.82 92 321.857 85.2555 321.857 72.0162C321.857 58.2774 332.696 52.2822 342.787 52.2822C350.885 52.2822 357.862 54.9051 362.471 60.2758V50.2839C362.471 42.7899 356.367 38.2936 347.77 38.2936C340.918 38.2936 335.063 40.9165 329.706 46.2871L324.847 38.5434C331.574 31.9238 339.797 28.6764 349.515 28.6764C362.596 28.6764 373.684 34.4217 373.684 49.7843V90.5012H362.471ZM362.471 77.262V67.0203C359.107 62.5239 353.252 60.1509 347.023 60.1509C338.925 60.1509 333.194 65.0219 333.194 72.1411C333.194 79.2603 338.925 84.1314 347.023 84.1314C353.252 84.1314 359.107 81.7583 362.471 77.262Z" fill="#181922"/>
<path d="M383.458 90.5012V29.7562H415.344C426.881 29.7562 432.786 37.1331 432.786 45.2385C432.786 52.8885 428.062 57.9885 422.339 59.1725C428.789 60.1742 433.967 66.4582 433.967 74.1082C433.967 83.2154 427.88 90.5012 416.343 90.5012H383.458ZM396.358 54.0724H412.528C416.889 54.0724 419.614 51.3403 419.614 47.5152C419.614 43.6902 416.889 40.867 412.528 40.867H396.358V54.0724ZM396.358 79.2994H412.982C417.888 79.2994 420.795 76.6583 420.795 72.2868C420.795 68.4618 418.069 65.1832 412.982 65.1832H396.358V79.2994ZM480.284 90.5012L476.559 80.2101H450.578L446.763 90.5012H432.046L455.484 29.7562H471.654L495 90.5012H480.284ZM463.569 42.6884L454.121 68.8261H473.016L463.569 42.6884Z" fill="#5580FC"/>
<path fill-rule="evenodd" clip-rule="evenodd" d="M33.8619 48.6994L31 92H52V48.6994L77.25 48.6994L103 70.35L77.25 92.0006L25.75 92.0006L0 70.35L25.75 48.6994L33.8619 48.6994Z" fill="#5580FC"/>
<path d="M68.4706 23.4694L73 92H52V0L68.4706 23.4694Z" fill="#A0B6F7"/>
</svg>
